<svg width="84" height="84" viewBox="0 0 84 84" fill="none" xmlns="http://www.w3.org/2000/svg" xmlns:xlink="http://www.w3.org/1999/xlink">
<path d="M29.262,2.763C20.869,5.674 13.631,11.201 8.611,18.53C3.591,25.859 1.054,34.605 1.372,43.483C1.69,52.361 4.846,60.903 10.378,67.854C15.909,74.805 23.524,79.8 32.104,82.103C39.059,83.898 46.347,83.977 53.34,82.333C59.675,80.91 65.532,77.866 70.337,73.5C75.338,68.817 78.968,62.859 80.837,56.267C82.867,49.098 83.229,41.56 81.893,34.23L42.833,34.23L42.833,50.433L65.454,50.433C65.002,53.017 64.033,55.483 62.606,57.685C61.178,59.886 59.321,61.776 57.146,63.243C54.384,65.071 51.27,66.3 48.005,66.852C44.73,67.461 41.37,67.461 38.095,66.852C34.776,66.167 31.635,64.796 28.875,62.829C24.44,59.69 21.109,55.229 19.359,50.085C17.58,44.844 17.58,39.162 19.359,33.921C20.605,30.248 22.664,26.903 25.384,24.137C28.496,20.913 32.435,18.609 36.771,17.476C41.106,16.344 45.669,16.428 49.96,17.719C53.312,18.747 56.378,20.545 58.912,22.969C61.462,20.431 64.008,17.887 66.55,15.337C67.863,13.965 69.293,12.659 70.586,11.255C66.718,7.655 62.177,4.854 57.225,3.012C48.206,-0.263 38.338,-0.351 29.262,2.763Z" fill="#FFFFFF"/>
<path d="M29.262,2.763C38.337,-0.353 48.205,-0.267 57.225,3.006C62.178,4.86 66.717,7.675 70.58,11.288C69.267,12.692 67.882,14.004 66.544,15.369C63.997,17.911 61.453,20.444 58.911,22.969C56.378,20.545 53.312,18.747 49.96,17.719C45.671,16.424 41.107,16.335 36.771,17.462C32.434,18.59 28.492,20.89 25.377,24.111C22.658,26.877 20.598,30.222 19.353,33.895L5.749,23.362C10.618,13.706 19.049,6.32 29.262,2.763Z" fill="#E33629"/>
<path d="M2.139,33.797C2.87,30.173 4.084,26.663 5.749,23.362L19.353,33.922C17.574,39.162 17.574,44.844 19.353,50.085C14.82,53.585 10.286,57.102 5.749,60.637C1.583,52.344 0.312,42.896 2.139,33.797Z" fill="#F8BD00"/>
<path d="M42.833,34.223L81.894,34.223C83.229,41.553 82.867,49.092 80.837,56.26C78.968,62.852 75.338,68.81 70.337,73.493C65.947,70.068 61.537,66.668 57.146,63.243C59.323,61.775 61.181,59.882 62.608,57.679C64.036,55.475 65.004,53.006 65.454,50.42L42.833,50.42C42.827,45.025 42.833,39.624 42.833,34.223Z" fill="#587DBD"/>
<path d="M5.742,60.637C10.279,57.137 14.814,53.62 19.346,50.085C21.1,55.231 24.435,59.692 28.875,62.829C31.644,64.787 34.791,66.146 38.115,66.819C41.39,67.428 44.749,67.428 48.024,66.819C51.29,66.267 54.404,65.038 57.166,63.21C61.556,66.636 65.966,70.035 70.357,73.461C65.552,77.829 59.695,80.875 53.36,82.3C46.367,83.944 39.079,83.865 32.123,82.071C26.622,80.602 21.483,78.012 17.03,74.465C12.316,70.722 8.466,66.005 5.742,60.637Z" fill="#319F43"/>
</svg>
