<svg width="116" height="102" viewBox="0 0 116 102" fill="none" xmlns="http://www.w3.org/2000/svg" xmlns:xlink="http://www.w3.org/1999/xlink">
<path d="M21.5,3.333L21.5,-0.667C20.404,-0.667 19.356,-0.217 18.601,0.577L21.5,3.333ZM3.75,22L0.851,19.244C0.144,19.987 -0.25,20.974 -0.25,22L3.75,22ZM3.75,87.333L-0.25,87.333L3.75,87.333ZM110.25,22L114.25,22C114.25,20.974 113.856,19.987 113.149,19.244L110.25,22ZM92.5,3.333L95.399,0.577C94.644,-0.217 93.596,-0.667 92.5,-0.667L92.5,3.333ZM84.667,40.667C84.667,38.458 82.876,36.667 80.667,36.667C78.458,36.667 76.667,38.458 76.667,40.667L84.667,40.667ZM57,59.333L57,63.333L57,59.333ZM37.333,40.667C37.333,38.458 35.542,36.667 33.333,36.667C31.124,36.667 29.333,38.458 29.333,40.667L37.333,40.667ZM18.601,0.577L0.851,19.244L6.649,24.756L24.399,6.09L18.601,0.577ZM-0.25,22L-0.25,87.333L7.75,87.333L7.75,22L-0.25,22ZM-0.25,87.333C-0.25,91.217 1.712,94.687 4.739,97.074L9.693,90.792C8.281,89.679 7.75,88.4 7.75,87.333L-0.25,87.333ZM4.739,97.074C7.742,99.442 11.651,100.667 15.583,100.667L15.583,92.667C13.239,92.667 11.128,91.924 9.693,90.792L4.739,97.074ZM15.583,100.667L98.417,100.667L98.417,92.667L15.583,92.667L15.583,100.667ZM98.417,100.667C102.349,100.667 106.258,99.442 109.261,97.074L104.307,90.792C102.872,91.924 100.761,92.667 98.417,92.667L98.417,100.667ZM109.261,97.074C112.288,94.687 114.25,91.217 114.25,87.333L106.25,87.333C106.25,88.4 105.719,89.679 104.307,90.792L109.261,97.074ZM114.25,87.333L114.25,22L106.25,22L106.25,87.333L114.25,87.333ZM113.149,19.244L95.399,0.577L89.601,6.09L107.351,24.756L113.149,19.244ZM92.5,-0.667L21.5,-0.667L21.5,7.333L92.5,7.333L92.5,-0.667ZM3.75,26L110.25,26L110.25,18L3.75,18L3.75,26ZM76.667,40.667C76.667,44.209 74.889,47.862 71.258,50.725L76.212,57.007C81.458,52.869 84.667,47.026 84.667,40.667L76.667,40.667ZM71.258,50.725C67.603,53.608 62.483,55.333 57,55.333L57,63.333C64.07,63.333 70.99,61.126 76.212,57.007L71.258,50.725ZM57,55.333C51.517,55.333 46.397,53.608 42.742,50.725L37.788,57.007C43.01,61.126 49.929,63.333 57,63.333L57,55.333ZM42.742,50.725C39.111,47.862 37.333,44.209 37.333,40.667L29.333,40.667C29.333,47.026 32.542,52.869 37.788,57.007L42.742,50.725Z" fill="#FEF9F9"/>
</svg>
