<svg width="92" height="82" viewBox="0 0 92 82" fill="none" xmlns="http://www.w3.org/2000/svg" xmlns:xlink="http://www.w3.org/1999/xlink">
<path d="M81.36,10.44L78.531,13.268L78.532,13.269L81.36,10.44ZM65.8,3.993L65.8,7.993L65.8,3.993ZM50.24,10.44L53.068,13.268L53.069,13.268L50.24,10.44ZM46,14.68L43.172,17.508C44.734,19.07 47.266,19.07 48.828,17.508L46,14.68ZM41.76,10.44L38.932,13.268L38.932,13.268L41.76,10.44ZM10.64,41.56L7.812,44.388L7.812,44.388L10.64,41.56ZM46,76.92L43.172,79.748C44.734,81.31 47.266,81.31 48.828,79.748L46,76.92ZM81.36,41.56L78.532,38.731L78.532,38.731L81.36,41.56ZM84.189,7.612C81.775,5.197 78.908,3.28 75.753,1.973L72.69,9.364C74.875,10.269 76.859,11.595 78.531,13.268L84.189,7.612ZM75.753,1.973C72.597,0.666 69.215,-0.007 65.8,-0.007L65.8,7.993C68.164,7.993 70.506,8.459 72.69,9.364L75.753,1.973ZM65.8,-0.007C62.385,-0.007 59.003,0.666 55.847,1.973L58.91,9.364C61.094,8.459 63.435,7.993 65.8,7.993L65.8,-0.007ZM55.847,1.973C52.692,3.28 49.825,5.197 47.411,7.612L53.069,13.268C54.741,11.595 56.725,10.269 58.91,9.364L55.847,1.973ZM47.412,7.612L43.172,11.852L48.828,17.508L53.068,13.268L47.412,7.612ZM48.828,11.852L44.588,7.612L38.932,13.268L43.172,17.508L48.828,11.852ZM44.588,7.612C39.711,2.735 33.097,-0.005 26.2,-0.005L26.2,7.995C30.975,7.995 35.555,9.892 38.932,13.268L44.588,7.612ZM26.2,-0.005C19.303,-0.005 12.688,2.735 7.812,7.612L13.468,13.268C16.845,9.892 21.425,7.995 26.2,7.995L26.2,-0.005ZM7.812,7.612C2.935,12.488 0.195,19.103 0.195,26L8.195,26C8.195,21.225 10.092,16.645 13.468,13.268L7.812,7.612ZM0.195,26C0.195,32.897 2.935,39.511 7.812,44.388L13.468,38.731C10.092,35.355 8.195,30.775 8.195,26L0.195,26ZM84.188,44.389C86.603,41.975 88.52,39.108 89.827,35.952L82.436,32.89C81.531,35.075 80.205,37.059 78.532,38.731L84.188,44.389ZM89.827,35.952C91.134,32.797 91.807,29.415 91.807,26L83.807,26C83.807,28.364 83.341,30.706 82.436,32.89L89.827,35.952ZM91.807,26C91.807,22.585 91.134,19.203 89.827,16.047L82.436,19.11C83.341,21.294 83.807,23.635 83.807,26L91.807,26ZM89.827,16.047C88.52,12.892 86.603,10.025 84.188,7.611L78.532,13.269C80.205,14.941 81.531,16.925 82.436,19.11L89.827,16.047ZM7.812,44.388L43.172,79.748L48.828,74.091L13.468,38.731L7.812,44.388ZM48.828,79.748L84.188,44.388L78.532,38.731L43.172,74.091L48.828,79.748Z" fill="#1E1E1E"/>
</svg>
