<svg width="134" height="126" viewBox="0 0 134 126" fill="none" xmlns="http://www.w3.org/2000/svg" xmlns:xlink="http://www.w3.org/1999/xlink">
<path d="M54.5,38.668L56.613,35.272C55.38,34.504 53.827,34.466 52.557,35.171C51.288,35.877 50.5,37.215 50.5,38.668L54.5,38.668ZM92,62.001L94.113,65.398C95.287,64.667 96,63.383 96,62.001C96,60.619 95.287,59.335 94.113,58.605L92,62.001ZM54.5,85.335L50.5,85.335C50.5,86.787 51.288,88.126 52.557,88.831C53.827,89.537 55.38,89.498 56.613,88.731L54.5,85.335ZM125.5,62.001C125.5,91.753 99.573,116.335 67,116.335L67,124.335C103.463,124.335 133.5,96.683 133.5,62.001L125.5,62.001ZM67,116.335C34.427,116.335 8.5,91.753 8.5,62.001L0.5,62.001C0.5,96.683 30.537,124.335 67,124.335L67,116.335ZM8.5,62.001C8.5,32.249 34.427,7.668 67,7.668L67,-0.332C30.537,-0.332 0.5,27.32 0.5,62.001L8.5,62.001ZM67,7.668C99.573,7.668 125.5,32.249 125.5,62.001L133.5,62.001C133.5,27.32 103.463,-0.332 67,-0.332L67,7.668ZM52.387,42.064L89.887,65.398L94.113,58.605L56.613,35.272L52.387,42.064ZM89.887,58.605L52.387,81.938L56.613,88.731L94.113,65.398L89.887,58.605ZM58.5,85.335L58.5,38.668L50.5,38.668L50.5,85.335L58.5,85.335Z" fill="#FCF2F2"/>
</svg>
