<svg width="248" height="242" viewBox="0 0 248 242" fill="none" xmlns="http://www.w3.org/2000/svg" xmlns:xlink="http://www.w3.org/1999/xlink">
<path d="M99.167,73.333L101.353,69.984C100.124,69.181 98.553,69.117 97.262,69.816C95.971,70.515 95.167,71.865 95.167,73.333L99.167,73.333ZM170.667,120L172.853,123.35C173.985,122.611 174.667,121.351 174.667,120C174.667,118.649 173.985,117.389 172.853,116.65L170.667,120ZM99.167,166.667L95.167,166.667C95.167,168.135 95.971,169.485 97.262,170.184C98.553,170.883 100.124,170.819 101.353,170.016L99.167,166.667ZM238.167,120C238.167,182.145 186.685,232.667 123,232.667L123,240.667C190.943,240.667 246.167,186.722 246.167,120L238.167,120ZM123,232.667C59.315,232.667 7.833,182.145 7.833,120L-0.167,120C-0.167,186.722 55.057,240.667 123,240.667L123,232.667ZM7.833,120C7.833,57.856 59.315,7.333 123,7.333L123,-0.667C55.057,-0.667 -0.167,53.278 -0.167,120L7.833,120ZM123,7.333C186.685,7.333 238.167,57.856 238.167,120L246.167,120C246.167,53.278 190.943,-0.667 123,-0.667L123,7.333ZM96.98,76.683L168.48,123.35L172.853,116.65L101.353,69.984L96.98,76.683ZM168.48,116.65L96.98,163.317L101.353,170.016L172.853,123.35L168.48,116.65ZM103.167,166.667L103.167,73.333L95.167,73.333L95.167,166.667L103.167,166.667Z" fill="#FAF2F2"/>
</svg>
