<svg width="102" height="88" viewBox="0 0 102 88" fill="none" xmlns="http://www.w3.org/2000/svg" xmlns:xlink="http://www.w3.org/1999/xlink">
<path d="M3.333,4L5.391,0.57C4.156,-0.171 2.616,-0.191 1.362,0.519C0.108,1.229 -0.667,2.559 -0.667,4L3.333,4ZM70,44L72.058,47.43C73.263,46.707 74,45.405 74,44C74,42.595 73.263,41.293 72.058,40.57L70,44ZM3.333,84L-0.667,84C-0.667,85.441 0.108,86.771 1.362,87.481C2.616,88.191 4.156,88.171 5.391,87.43L3.333,84ZM100.667,9C100.667,6.791 98.876,5 96.667,5C94.457,5 92.667,6.791 92.667,9L100.667,9ZM92.667,79C92.667,81.209 94.457,83 96.667,83C98.876,83 100.667,81.209 100.667,79L92.667,79ZM1.275,7.43L67.942,47.43L72.058,40.57L5.391,0.57L1.275,7.43ZM67.942,40.57L1.275,80.57L5.391,87.43L72.058,47.43L67.942,40.57ZM7.333,84L7.333,4L-0.667,4L-0.667,84L7.333,84ZM92.667,9L92.667,79L100.667,79L100.667,9L92.667,9Z" fill="#FEF8F8"/>
</svg>
