<svg width="84" height="98" viewBox="0 0 84 98" fill="none" xmlns="http://www.w3.org/2000/svg" xmlns:xlink="http://www.w3.org/1999/xlink">
<path d="M4.5,35.75L1.955,32.664C1.034,33.424 0.5,34.556 0.5,35.75L4.5,35.75ZM42,4.833L44.545,1.747C43.067,0.529 40.933,0.529 39.455,1.747L42,4.833ZM79.5,35.75L83.5,35.75C83.5,34.556 82.966,33.424 82.045,32.664L79.5,35.75ZM4.5,84.333L0.5,84.333L4.5,84.333ZM25.5,93.167C25.5,95.376 27.291,97.167 29.5,97.167C31.709,97.167 33.5,95.376 33.5,93.167L25.5,93.167ZM29.5,49L29.5,45C27.291,45 25.5,46.791 25.5,49L29.5,49ZM54.5,49L58.5,49C58.5,46.791 56.709,45 54.5,45L54.5,49ZM50.5,93.167C50.5,95.376 52.291,97.167 54.5,97.167C56.709,97.167 58.5,95.376 58.5,93.167L50.5,93.167ZM7.045,38.836L44.545,7.92L39.455,1.747L1.955,32.664L7.045,38.836ZM39.455,7.92L76.955,38.836L82.045,32.664L44.545,1.747L39.455,7.92ZM75.5,35.75L75.5,84.333L83.5,84.333L83.5,35.75L75.5,35.75ZM75.5,84.333C75.5,85.688 74.99,86.944 74.15,87.835L79.969,93.324C82.254,90.902 83.5,87.664 83.5,84.333L75.5,84.333ZM74.15,87.835C73.317,88.718 72.238,89.167 71.167,89.167L71.167,97.167C74.515,97.167 77.676,95.754 79.969,93.324L74.15,87.835ZM71.167,89.167L12.833,89.167L12.833,97.167L71.167,97.167L71.167,89.167ZM12.833,89.167C11.762,89.167 10.683,88.718 9.85,87.835L4.031,93.324C6.324,95.754 9.485,97.167 12.833,97.167L12.833,89.167ZM9.85,87.835C9.01,86.944 8.5,85.688 8.5,84.333L0.5,84.333C0.5,87.664 1.746,90.902 4.031,93.324L9.85,87.835ZM8.5,84.333L8.5,35.75L0.5,35.75L0.5,84.333L8.5,84.333ZM33.5,93.167L33.5,49L25.5,49L25.5,93.167L33.5,93.167ZM29.5,53L54.5,53L54.5,45L29.5,45L29.5,53ZM50.5,49L50.5,93.167L58.5,93.167L58.5,49L50.5,49Z" fill="#FEF9F9"/>
</svg>
