<svg width="152" height="152" viewBox="0 0 152 152" fill="none" xmlns="http://www.w3.org/2000/svg" xmlns:xlink="http://www.w3.org/1999/xlink">
<path d="M101.838,78.828C103.4,80.391 105.933,80.391 107.495,78.828C109.057,77.266 109.057,74.734 107.495,73.172L101.838,78.828ZM76,47.333L78.828,44.505C77.266,42.943 74.734,42.943 73.172,44.505L76,47.333ZM44.505,73.172C42.943,74.734 42.943,77.266 44.505,78.828C46.067,80.391 48.6,80.391 50.162,78.828L44.505,73.172ZM72,104.667C72,106.876 73.791,108.667 76,108.667C78.209,108.667 80,106.876 80,104.667L72,104.667ZM143.667,76C143.667,113.371 113.371,143.667 76,143.667L76,151.667C117.79,151.667 151.667,117.79 151.667,76L143.667,76ZM76,143.667C38.629,143.667 8.333,113.371 8.333,76L0.333,76C0.333,117.79 34.211,151.667 76,151.667L76,143.667ZM8.333,76C8.333,38.629 38.629,8.333 76,8.333L76,0.333C34.211,0.333 0.333,34.211 0.333,76L8.333,76ZM76,8.333C113.371,8.333 143.667,38.629 143.667,76L151.667,76C151.667,34.211 117.79,0.333 76,0.333L76,8.333ZM107.495,73.172L78.828,44.505L73.172,50.162L101.838,78.828L107.495,73.172ZM73.172,44.505L44.505,73.172L50.162,78.828L78.828,50.162L73.172,44.505ZM80,104.667L80,47.333L72,47.333L72,104.667L80,104.667Z" fill="#F7EFEF"/>
</svg>
