<svg width="90" height="88" viewBox="0 0 90 88" fill="none" xmlns="http://www.w3.org/2000/svg" xmlns:xlink="http://www.w3.org/1999/xlink">
<path d="M84.833,84L82.571,87.299C83.796,88.138 85.384,88.231 86.698,87.539C88.011,86.847 88.833,85.485 88.833,84L84.833,84ZM26.5,44L24.238,40.701C23.15,41.447 22.5,42.681 22.5,44C22.5,45.319 23.15,46.553 24.238,47.299L26.5,44ZM84.833,4L88.833,4C88.833,2.515 88.011,1.153 86.698,0.461C85.384,-0.231 83.796,-0.138 82.571,0.701L84.833,4ZM-0.833,79C-0.833,81.209 0.958,83 3.167,83C5.376,83 7.167,81.209 7.167,79L-0.833,79ZM7.167,9C7.167,6.791 5.376,5 3.167,5C0.958,5 -0.833,6.791 -0.833,9L7.167,9ZM87.096,80.701L28.762,40.701L24.238,47.299L82.571,87.299L87.096,80.701ZM28.762,47.299L87.096,7.299L82.571,0.701L24.238,40.701L28.762,47.299ZM80.833,4L80.833,84L88.833,84L88.833,4L80.833,4ZM7.167,79L7.167,9L-0.833,9L-0.833,79L7.167,79Z" fill="#FFF9F9"/>
</svg>
