<svg width="84" height="104" viewBox="0 0 84 104" fill="none" xmlns="http://www.w3.org/2000/svg" xmlns:xlink="http://www.w3.org/1999/xlink">
<path d="M17,3.5L17,-0.5C15.654,-0.5 14.398,0.177 13.658,1.302L17,3.5ZM4.5,22.5L1.158,20.302C0.729,20.954 0.5,21.719 0.5,22.5L4.5,22.5ZM4.5,89L0.5,89L4.5,89ZM79.5,22.5L83.5,22.5C83.5,21.719 83.271,20.954 82.842,20.302L79.5,22.5ZM67,3.5L70.342,1.302C69.602,0.177 68.346,-0.5 67,-0.5L67,3.5ZM62.667,41.5C62.667,39.291 60.876,37.5 58.667,37.5C56.458,37.5 54.667,39.291 54.667,41.5L62.667,41.5ZM42,60.5L42,64.5L42,60.5ZM29.333,41.5C29.333,39.291 27.542,37.5 25.333,37.5C23.124,37.5 21.333,39.291 21.333,41.5L29.333,41.5ZM13.658,1.302L1.158,20.302L7.842,24.698L20.342,5.698L13.658,1.302ZM0.5,22.5L0.5,89L8.5,89L8.5,22.5L0.5,22.5ZM0.5,89C0.5,92.424 1.688,95.795 3.934,98.355L9.948,93.08C9.068,92.076 8.5,90.616 8.5,89L0.5,89ZM3.934,98.355C6.194,100.932 9.381,102.5 12.833,102.5L12.833,94.5C11.866,94.5 10.813,94.066 9.948,93.08L3.934,98.355ZM12.833,102.5L71.167,102.5L71.167,94.5L12.833,94.5L12.833,102.5ZM71.167,102.5C74.619,102.5 77.806,100.932 80.066,98.355L74.052,93.08C73.187,94.066 72.134,94.5 71.167,94.5L71.167,102.5ZM80.066,98.355C82.312,95.795 83.5,92.424 83.5,89L75.5,89C75.5,90.616 74.932,92.076 74.052,93.08L80.066,98.355ZM83.5,89L83.5,22.5L75.5,22.5L75.5,89L83.5,89ZM82.842,20.302L70.342,1.302L63.658,5.698L76.158,24.698L82.842,20.302ZM67,-0.5L17,-0.5L17,7.5L67,7.5L67,-0.5ZM4.5,26.5L79.5,26.5L79.5,18.5L4.5,18.5L4.5,26.5ZM54.667,41.5C54.667,45.635 53.221,49.512 50.778,52.297L56.792,57.573C60.6,53.231 62.667,47.443 62.667,41.5L54.667,41.5ZM50.778,52.297C48.35,55.065 45.178,56.5 42,56.5L42,64.5C47.663,64.5 52.969,61.931 56.792,57.573L50.778,52.297ZM42,56.5C38.822,56.5 35.65,55.065 33.222,52.297L27.208,57.573C31.031,61.931 36.337,64.5 42,64.5L42,56.5ZM33.222,52.297C30.779,49.512 29.333,45.635 29.333,41.5L21.333,41.5C21.333,47.443 23.4,53.231 27.208,57.573L33.222,52.297Z" fill="#FFFCFC"/>
</svg>
