<svg width="84" height="84" viewBox="0 0 84 84" fill="none" xmlns="http://www.w3.org/2000/svg" xmlns:xlink="http://www.w3.org/1999/xlink">
<path d="M84,42C84,18.804 65.196,0 42,0C18.804,0 0,18.804 0,42C0,62.963 15.359,80.339 35.438,83.49L35.438,54.141L24.773,54.141L24.773,42L35.438,42L35.438,32.747C35.438,22.221 41.708,16.406 51.301,16.406C55.897,16.406 60.703,17.227 60.703,17.227L60.703,27.562L55.407,27.562C50.189,27.562 48.562,30.8 48.562,34.122L48.562,42L60.211,42L58.349,54.141L48.562,54.141L48.562,83.49C68.641,80.339 84,62.964 84,42Z" fill="#1877F2"/>
<path d="M58.349,54.141L60.211,42L48.562,42L48.562,34.122C48.562,30.8 50.19,27.562 55.407,27.562L60.703,27.562L60.703,17.227C60.703,17.227 55.897,16.406 51.301,16.406C41.708,16.406 35.437,22.221 35.437,32.747L35.437,42L24.773,42L24.773,54.141L35.437,54.141L35.437,83.49C37.608,83.83 39.803,84.001 42,84C44.197,84.001 46.392,83.83 48.562,83.49L48.562,54.141L58.349,54.141Z" fill="#FFFFFF"/>
</svg>
