<svg width="104" height="92" viewBox="0 0 104 92" fill="none" xmlns="http://www.w3.org/2000/svg" xmlns:xlink="http://www.w3.org/1999/xlink">
<path d="M71.523,27.729L81.149,27.729L74.99,32.934C74.748,33.146 74.555,33.399 74.424,33.677C74.293,33.955 74.225,34.253 74.225,34.555C74.225,34.856 74.293,35.154 74.424,35.433C74.555,35.711 74.748,35.963 74.99,36.175C75.232,36.404 75.525,36.585 75.85,36.71C76.175,36.834 76.525,36.898 76.879,36.898C77.233,36.898 77.584,36.834 77.909,36.71C78.234,36.585 78.526,36.404 78.768,36.175L89.455,27.044C89.706,26.838 89.909,26.59 90.05,26.314C90.206,26.029 90.287,25.717 90.287,25.401C90.287,25.085 90.206,24.773 90.05,24.488C89.932,24.2 89.737,23.941 89.481,23.735L78.794,14.604C78.28,14.175 77.6,13.936 76.892,13.936C76.185,13.936 75.504,14.175 74.99,14.604C74.748,14.816 74.555,15.068 74.424,15.346C74.293,15.625 74.225,15.923 74.225,16.224C74.225,16.526 74.293,16.824 74.424,17.102C74.555,17.38 74.748,17.633 74.99,17.845L81.149,23.073L71.523,23.073C68.411,23.024 65.32,23.517 62.424,24.524C59.529,25.531 56.887,27.031 54.65,28.939C52.412,30.847 50.623,33.126 49.385,35.644C48.146,38.163 47.483,40.872 47.432,43.617C47.392,45.752 46.875,47.858 45.912,49.816C44.948,51.775 43.557,53.546 41.817,55.03C40.078,56.514 38.024,57.681 35.773,58.465C33.522,59.248 31.118,59.633 28.698,59.596L15.294,59.596C14.608,59.596 13.95,59.837 13.464,60.265C12.979,60.693 12.707,61.274 12.707,61.879C12.707,62.484 12.979,63.065 13.464,63.493C13.95,63.921 14.608,64.162 15.294,64.162L28.698,64.162C34.98,64.253 41.046,62.141 45.564,58.288C50.081,54.436 52.68,49.159 52.789,43.617C52.897,39.322 54.929,35.24 58.44,32.263C61.95,29.286 66.654,27.656 71.523,27.729ZM15.294,27.729L28.698,27.729C31.696,27.711 34.656,28.322 37.334,29.513C40.011,30.704 42.328,32.44 44.094,34.578C44.765,32.977 45.633,31.446 46.682,30.012C44.365,27.826 41.559,26.088 38.441,24.909C35.323,23.73 31.961,23.136 28.569,23.164L15.294,23.164C14.608,23.164 13.95,23.404 13.464,23.832C12.979,24.261 12.707,24.841 12.707,25.447C12.707,26.052 12.979,26.633 13.464,27.061C13.95,27.489 14.608,27.729 15.294,27.729Z" fill="#FFFBFB"/>
<path d="M89.688,60.601C89.628,60.504 89.559,60.413 89.481,60.327L78.794,51.196C78.28,50.767 77.6,50.528 76.892,50.528C76.185,50.528 75.504,50.767 74.99,51.196C74.748,51.408 74.555,51.66 74.424,51.939C74.293,52.217 74.225,52.515 74.225,52.817C74.225,53.118 74.293,53.416 74.424,53.694C74.555,53.973 74.748,54.225 74.99,54.437L81.149,59.665L71.523,59.665C68.526,59.676 65.569,59.061 62.893,57.871C60.217,56.681 57.899,54.949 56.127,52.817C55.466,54.421 54.598,55.953 53.539,57.382C55.855,59.57 58.661,61.308 61.779,62.487C64.897,63.666 68.26,64.26 71.652,64.23L81.278,64.23L74.99,69.458C74.508,69.885 74.238,70.464 74.238,71.067C74.238,71.67 74.508,72.249 74.99,72.676C75.5,73.103 76.176,73.342 76.879,73.342C77.582,73.342 78.258,73.103 78.768,72.676L89.455,63.545C89.533,63.46 89.602,63.368 89.662,63.271C89.82,63.136 89.943,62.973 90.024,62.792C90.176,62.515 90.257,62.212 90.262,61.904C90.266,61.597 90.194,61.292 90.05,61.012C89.96,60.855 89.837,60.716 89.688,60.601Z" fill="#FFFBFB"/>
</svg>
