<svg width="30" height="16" viewBox="0 0 30 16" fill="none" xmlns="http://www.w3.org/2000/svg" xmlns:xlink="http://www.w3.org/1999/xlink">
<path d="M28.062,11.609C27.934,11.683 27.792,11.73 27.645,11.748C27.499,11.767 27.35,11.756 27.207,11.717C27.064,11.678 26.931,11.611 26.814,11.52C26.697,11.429 26.6,11.316 26.527,11.187L23.855,6.519C22.302,7.569 20.588,8.36 18.781,8.861L19.607,13.814C19.631,13.96 19.626,14.109 19.593,14.253C19.56,14.397 19.498,14.533 19.412,14.654C19.326,14.774 19.218,14.876 19.092,14.954C18.967,15.033 18.827,15.085 18.681,15.109C18.621,15.119 18.561,15.124 18.5,15.125C18.234,15.125 17.976,15.03 17.774,14.858C17.571,14.685 17.435,14.447 17.392,14.184L16.58,9.321C14.869,9.559 13.133,9.559 11.422,9.321L10.611,14.184C10.567,14.447 10.432,14.686 10.228,14.858C10.025,15.031 9.767,15.125 9.5,15.125C9.438,15.125 9.376,15.119 9.314,15.109C9.168,15.085 9.029,15.033 8.903,14.954C8.778,14.876 8.669,14.774 8.583,14.654C8.497,14.533 8.436,14.397 8.403,14.253C8.369,14.109 8.365,13.96 8.389,13.814L9.219,8.861C7.413,8.359 5.7,7.566 4.148,6.514L1.484,11.187C1.41,11.316 1.312,11.429 1.194,11.52C1.077,11.61 0.943,11.677 0.799,11.716C0.656,11.755 0.507,11.765 0.36,11.746C0.212,11.727 0.07,11.679 -0.058,11.605C-0.187,11.531 -0.3,11.433 -0.391,11.315C-0.481,11.198 -0.548,11.063 -0.587,10.92C-0.625,10.777 -0.636,10.628 -0.617,10.48C-0.598,10.333 -0.55,10.191 -0.476,10.062L2.336,5.141C1.349,4.287 0.44,3.346 -0.378,2.328C-0.48,2.214 -0.557,2.081 -0.606,1.936C-0.655,1.791 -0.673,1.638 -0.661,1.485C-0.648,1.333 -0.605,1.185 -0.533,1.05C-0.461,0.915 -0.363,0.796 -0.244,0.7C-0.124,0.604 0.013,0.534 0.16,0.493C0.308,0.452 0.462,0.442 0.613,0.463C0.765,0.484 0.91,0.535 1.041,0.614C1.172,0.693 1.286,0.798 1.375,0.922C3.709,3.81 7.793,7.25 14,7.25C20.207,7.25 24.291,3.806 26.625,0.922C26.713,0.795 26.826,0.688 26.958,0.607C27.089,0.526 27.236,0.472 27.388,0.45C27.541,0.428 27.697,0.438 27.846,0.479C27.995,0.519 28.134,0.59 28.254,0.687C28.374,0.784 28.473,0.904 28.545,1.041C28.617,1.177 28.66,1.327 28.671,1.481C28.682,1.635 28.662,1.79 28.611,1.935C28.56,2.081 28.479,2.215 28.375,2.328C27.557,3.346 26.648,4.287 25.661,5.141L28.473,10.062C28.549,10.191 28.598,10.333 28.618,10.48C28.638,10.628 28.629,10.778 28.591,10.922C28.553,11.065 28.486,11.2 28.396,11.318C28.305,11.436 28.192,11.535 28.062,11.609Z" fill="#FFFFFF"/>
</svg>
