<svg width="210" height="268" viewBox="0 0 210 268" fill="none" xmlns="http://www.w3.org/2000/svg" xmlns:xlink="http://www.w3.org/1999/xlink">
<path d="M135.583,267.116C133.72,267.116 132.094,266 130.695,263.784L112.091,234.102C110.002,230.77 109.529,226.306 110.465,221.856C111.628,217.77 114.19,214.812 116.978,214.812L144.885,214.812C158.601,214.812 171.391,206.276 181.167,191.074C190.697,175.842 196.047,155.437 196.047,133.553C196.047,88.653 173.028,51.931 144.886,51.931L128.607,51.931C124.655,51.931 121.63,47.105 121.63,40.801C121.63,34.496 124.655,29.67 128.607,29.67L144.886,29.67C180.694,29.67 210,76.425 210,133.553C210,161.379 203.26,187.349 190.933,207.016C178.606,226.684 162.326,237.436 144.885,237.436L133.721,237.436L140.461,248.19C143.25,252.638 143.25,259.696 140.461,263.77C139.071,266 137.445,267.116 135.583,267.116ZM89.072,237.436L65.817,237.436C30.008,237.436 0.702,190.681 0.702,133.553C0.702,105.727 7.442,79.757 19.77,60.089C32.097,40.422 48.376,29.67 65.817,29.67L83.958,29.67L77.218,18.916C74.429,14.467 74.429,7.409 77.218,3.337C80.007,-1.112 84.431,-1.112 86.983,3.337L105.587,33.018C107.677,36.351 108.149,40.815 107.214,45.264C106.278,49.699 103.489,51.931 100.7,51.931L65.817,51.931C52.101,51.931 39.311,60.467 29.535,75.669C20.005,91.263 14.655,111.669 14.655,133.554C14.655,178.454 37.674,215.176 65.816,215.176L89.072,215.176C93.023,215.176 96.048,220.002 96.048,226.306C96.048,232.61 93.024,237.436 89.072,237.436Z" fill="#FFFBFB"/>
</svg>
