<svg width="78" height="70" viewBox="0 0 78 70" fill="none" xmlns="http://www.w3.org/2000/svg" xmlns:xlink="http://www.w3.org/1999/xlink">
<path d="M43.16,1.016C44.187,1.398 44.906,2.214 45.09,3.161L45.137,3.645L45.137,66.42C45.137,67.569 44.355,68.607 43.154,69.052C42.124,69.433 40.958,69.314 40.06,68.766L39.636,68.456L20.705,52.049L9.558,52.049C4.514,52.049 0.369,48.654 -0.102,44.313L-0.146,43.488L-0.146,26.431C-0.146,21.981 3.702,18.324 8.623,17.91L9.558,17.871L20.713,17.871L39.646,1.601C40.577,0.8 41.962,0.57 43.16,1.016ZM62.848,6.836L63.407,7.172L64.04,7.654C64.447,7.977 65.009,8.444 65.674,9.053C67.002,10.27 68.752,12.063 70.499,14.41C73.995,19.107 77.503,26.069 77.503,35.056C77.503,44.043 73.994,50.995 70.496,55.682C68.749,58.023 66.998,59.81 65.669,61.023L64.755,61.827L63.547,62.792L63.334,62.946C61.933,63.925 59.894,63.72 58.785,62.485C57.801,61.39 57.876,59.853 58.882,58.837L59.718,58.167C60.02,57.929 60.469,57.557 61.018,57.057C62.117,56.054 63.603,54.541 65.093,52.544C68.07,48.554 71.034,42.677 71.034,35.056C71.034,27.434 68.07,21.544 65.091,17.542C63.849,15.872 62.609,14.539 61.594,13.558L60.499,12.552L59.307,11.585C57.911,10.603 57.678,8.807 58.79,7.575C59.779,6.479 61.496,6.196 62.848,6.836ZM56.384,18.249L57.028,18.647L57.892,19.365L58.242,19.688C58.976,20.387 59.923,21.41 60.861,22.771C62.747,25.508 64.572,29.579 64.572,35.024C64.572,40.469 62.747,44.545 60.863,47.286C59.926,48.648 58.979,49.675 58.245,50.375L57.588,50.97L57.133,51.341L56.876,51.533L56.466,51.698C55.609,52 53.606,52.494 52.331,51.085C51.344,49.997 51.408,48.467 52.401,47.447L53.271,46.709L53.494,46.502C53.976,46.042 54.649,45.319 55.332,44.326C56.687,42.354 58.103,39.29 58.103,35.024C58.103,30.758 56.687,27.701 55.333,25.736C54.822,24.993 54.315,24.402 53.891,23.96L53.275,23.362L52.832,22.991C51.443,22.014 51.215,20.222 52.326,18.989C53.314,17.893 55.032,17.61 56.384,18.249Z" fill="#FFFBFB"/>
</svg>
