<svg width="28" height="28" viewBox="0 0 28 28" fill="none" xmlns="http://www.w3.org/2000/svg" xmlns:xlink="http://www.w3.org/1999/xlink">
<path d="M6.125,0.5C4.633,0.5 3.202,1.093 2.148,2.148C1.093,3.202 0.5,4.633 0.5,6.125L0.5,21.875C0.5,23.367 1.093,24.798 2.148,25.852C3.202,26.907 4.633,27.5 6.125,27.5L21.875,27.5C23.367,27.5 24.798,26.907 25.852,25.852C26.907,24.798 27.5,23.367 27.5,21.875L27.5,6.125C27.5,4.633 26.907,3.202 25.852,2.148C24.798,1.093 23.367,0.5 21.875,0.5L6.125,0.5ZM20.421,11.421L12.546,19.297C12.442,19.401 12.318,19.484 12.181,19.541C12.044,19.598 11.898,19.627 11.75,19.627C11.602,19.627 11.456,19.598 11.319,19.541C11.182,19.484 11.058,19.401 10.954,19.297L7.579,15.921C7.474,15.817 7.391,15.693 7.334,15.556C7.278,15.419 7.249,15.273 7.249,15.125C7.249,14.977 7.278,14.831 7.334,14.694C7.391,14.557 7.474,14.433 7.579,14.329C7.79,14.117 8.076,13.999 8.375,13.999C8.523,13.999 8.669,14.028 8.806,14.084C8.943,14.141 9.067,14.224 9.171,14.329L11.75,16.909L18.829,9.829C19.04,9.617 19.326,9.499 19.625,9.499C19.924,9.499 20.21,9.617 20.421,9.829C20.633,10.04 20.751,10.326 20.751,10.625C20.751,10.924 20.633,11.21 20.421,11.421Z" fill="url(#pf_0_140_97)"/>
<defs>
<linearGradient id="pf_0_140_97" x1="14" y1="0.5" x2="14" y2="27.5" gradientUnits="userSpaceOnUse">
<stop stop-color="#7CC1F3"/>
<stop offset="1" stop-color="#D27EEF"/>
</linearGradient>
</defs>
</svg>
