<svg width="84" height="82" viewBox="0 0 84 82" fill="none" xmlns="http://www.w3.org/2000/svg" xmlns:xlink="http://www.w3.org/1999/xlink">
<path d="M42,0C18.795,0 0,18.795 0,42C0,60.585 12.023,76.283 28.717,81.848C30.817,82.215 31.605,80.955 31.605,79.853C31.605,78.855 31.553,75.548 31.553,72.03C21,73.973 18.27,69.457 17.43,67.095C16.958,65.887 14.91,62.16 13.125,61.162C11.655,60.375 9.555,58.432 13.073,58.38C16.38,58.327 18.743,61.425 19.53,62.685C23.31,69.037 29.348,67.253 31.763,66.15C32.13,63.42 33.232,61.583 34.44,60.532C25.095,59.482 15.33,55.86 15.33,39.795C15.33,35.228 16.958,31.447 19.635,28.507C19.215,27.457 17.745,23.153 20.055,17.377C20.055,17.377 23.573,16.275 31.605,21.683C34.965,20.738 38.535,20.265 42.105,20.265C45.675,20.265 49.245,20.738 52.605,21.683C60.638,16.223 64.155,17.377 64.155,17.377C66.465,23.153 64.995,27.457 64.575,28.507C67.253,31.447 68.88,35.175 68.88,39.795C68.88,55.912 59.062,59.482 49.718,60.532C51.24,61.845 52.553,64.365 52.553,68.302C52.553,73.92 52.5,78.435 52.5,79.853C52.5,80.955 53.288,82.268 55.388,81.848C63.726,79.033 70.971,73.675 76.104,66.527C81.237,59.378 83.999,50.8 84,42C84,18.795 65.205,0 42,0Z" fill="#FFFFFF"/>
</svg>
